<?xml version="1.0" encoding="UTF-8" standalone="no" ?>
<!DOCTYPE svg PUBLIC "-//W3C//DTD SVG 1.1//EN" "http://www.w3.org/Graphics/SVG/1.1/DTD/svg11.dtd">
<svg xmlns="http://www.w3.org/2000/svg" xmlns:xlink="http://www.w3.org/1999/xlink" version="1.1" width="1080" height="1080" viewBox="0 0 1080 1080" xml:space="preserve">
<desc>Created with Fabric.js 5.2.4</desc>
<defs>
</defs>
<g transform="matrix(1 0 0 1 540 540)" id="cfb7b28d-d946-4a4f-b057-73ffdf290c29"  >
<rect style="stroke: none; stroke-width: 1; stroke-dasharray: none; stroke-linecap: butt; stroke-dashoffset: 0; stroke-linejoin: miter; stroke-miterlimit: 4; fill: rgb(255,255,255); fill-rule: nonzero; opacity: 1; visibility: hidden;" vector-effect="non-scaling-stroke"  x="-540" y="-540" rx="0" ry="0" width="1080" height="1080" />
</g>
<g transform="matrix(1 0 0 1 540 540)" id="f0bdf9a3-aa26-4768-8fdf-0a0924202573"  >
</g>
<g transform="matrix(1 0 0 1.09 540 778.51)"  >
<g style="" vector-effect="non-scaling-stroke"   >
		<g transform="matrix(1 0 0 1 -107 193.21)"  >
<path style="stroke: none; stroke-width: 1; stroke-dasharray: none; stroke-linecap: butt; stroke-dashoffset: 0; stroke-linejoin: miter; stroke-miterlimit: 4; fill: rgb(63,61,86); fill-rule: nonzero; opacity: 1;" vector-effect="non-scaling-stroke"  transform=" translate(-493, -643.21)" d="M 479.90234 562.18555 C 477.76990362891866 562.1882392140162 476.0419687287885 563.9163933049647 476.03954999999996 566.0488300000001 L 476.03954999999996 720.36328 C 476.0419687287885 722.4957166950354 477.76990362891866 724.2238707859839 479.90234 724.2265600000001 L 506.09814 724.2265600000001 C 508.2305779950539 724.2238707971462 509.95851576212556 722.4957183127378 509.96094 720.36328 L 509.96094 566.04883 C 509.95851576212556 563.9163916872621 508.2305779950539 562.1882392028538 506.09814 562.1855499999999 Z" stroke-linecap="round" />
</g>
		<g transform="matrix(1 0 0 1 110.84 193.21)"  >
<path style="stroke: none; stroke-width: 1; stroke-dasharray: none; stroke-linecap: butt; stroke-dashoffset: 0; stroke-linejoin: miter; stroke-miterlimit: 4; fill: rgb(63,61,86); fill-rule: nonzero; opacity: 1;" vector-effect="non-scaling-stroke"  transform=" translate(-710.84, -643.21)" d="M 697.74121 562.18555 C 695.6086780748803 562.1882001753487 693.8805801753487 563.9162980748804 693.87793 566.0488300000001 L 693.87793 720.36328 C 693.8805801753487 722.4958119251197 695.6086780748803 724.2239098246514 697.74121 724.2265600000001 L 723.93652 724.2265600000001 C 726.0690519251197 724.2239098246514 727.7971498246513 722.4958119251197 727.7998 720.36328 L 727.7998 566.04883 C 727.7971498246513 563.9162980748803 726.0690519251197 562.1882001753486 723.93652 562.1855499999999 Z" stroke-linecap="round" />
</g>
		<g transform="matrix(1 0 0 1 119.7 -12.26)"  >
<polygon style="stroke: none; stroke-width: 1; stroke-dasharray: none; stroke-linecap: butt; stroke-dashoffset: 0; stroke-linejoin: miter; stroke-miterlimit: 4; fill: rgb(63,61,86); fill-rule: nonzero; opacity: 1;" vector-effect="non-scaling-stroke"  points="100.43,1.85 -100.43,-13.66 59.81,13.66 98.21,7.01 100.43,1.85 " />
</g>
		<g transform="matrix(1 0 0 1 121.18 -11.26)"  >
<polygon style="stroke: none; stroke-width: 1; stroke-dasharray: none; stroke-linecap: butt; stroke-dashoffset: 0; stroke-linejoin: miter; stroke-miterlimit: 4; fill: rgb(108,99,255); fill-rule: nonzero; opacity: 1;" vector-effect="non-scaling-stroke"  points="59.81,10.23 98.21,3.58 98.59,2.7 100.43,2.85 98.21,8.01 59.81,14.66 -100.43,-14.66 -52.94,-8.99 59.81,10.23 " />
</g>
		<g transform="matrix(1 0 0 1 -335.18 -12.26)"  >
<polygon style="stroke: none; stroke-width: 1; stroke-dasharray: none; stroke-linecap: butt; stroke-dashoffset: 0; stroke-linejoin: miter; stroke-miterlimit: 4; fill: rgb(63,61,86); fill-rule: nonzero; opacity: 1;" vector-effect="non-scaling-stroke"  points="100.43,1.85 -100.43,-13.66 59.81,13.66 98.21,7.01 100.43,1.85 " />
</g>
		<g transform="matrix(1 0 0 1 -337.39 -11.26)"  >
<polygon style="stroke: none; stroke-width: 1; stroke-dasharray: none; stroke-linecap: butt; stroke-dashoffset: 0; stroke-linejoin: miter; stroke-miterlimit: 4; fill: rgb(108,99,255); fill-rule: nonzero; opacity: 1;" vector-effect="non-scaling-stroke"  points="59.81,10.23 98.21,3.58 98.59,2.7 100.43,2.85 98.21,8.01 59.81,14.66 -100.43,-14.66 -52.94,-8.99 59.81,10.23 " />
</g>
		<g transform="matrix(1 0 0 1 5.24 99.61)"  >
<path style="stroke: none; stroke-width: 1; stroke-dasharray: none; stroke-linecap: butt; stroke-dashoffset: 0; stroke-linejoin: miter; stroke-miterlimit: 4; fill: rgb(63,61,86); fill-rule: nonzero; opacity: 1;" vector-effect="non-scaling-stroke"  transform=" translate(-605.24, -549.61)" d="M 854.09532 520.07184 L 837.11132 520.8102799999999 L 681.5155199999999 586.4571799999999 L 672.61 593.91541 L 644.37962 617.54535 L 555.76731 617.54535 L 529.0802299999999 593.91541 L 518.9341299999999 584.9286099999999 L 369.68151999999986 521.5487099999999 L 356.3896799999999 520.07184 L 400.6958199999999 498.65720999999996 L 400.9321299999999 498.65720999999996 C 410.97482999999994 489.12397999999996 497.9478099999999 481.67321 603.7656299999999 481.67321 C 709.5834499999999 481.67321 796.5564199999999 489.12399999999997 806.5991299999998 498.65720999999996 L 807.5738699999998 498.65720999999996 Z" stroke-linecap="round" />
</g>
		<g transform="matrix(1 0 0 1 -221.09 22.07)"  >
<path style="stroke: none; stroke-width: 1; stroke-dasharray: none; stroke-linecap: butt; stroke-dashoffset: 0; stroke-linejoin: miter; stroke-miterlimit: 4; fill: rgb(63,61,86); fill-rule: nonzero; opacity: 1;" vector-effect="non-scaling-stroke"  transform=" translate(-378.91, -472.07)" d="M 399.47889 499.75191 C 399.7938133138879 498.866516309603 399.9556338423612 497.93395162439543 399.95741 496.99422 L 399.95741 461.92146 C 399.9573989543365 457.33262057209436 396.2374094279156 453.61263552282014 391.64857 453.61263 L 388.27491000000003 453.61263 C 396.00840932534663 445.80768997915123 395.969818065876 433.2171709260891 388.18861858195027 425.45978508190564 C 380.4074190980246 417.70239923772215 367.81684090197547 417.70239923772215 360.0356414180498 425.45978508190564 C 352.2544419341241 433.21717092608907 352.21585067465344 445.80768997915123 359.94935000000004 453.61263 L 356.57576000000006 453.61263 C 354.3721179140048 453.6126220434677 352.2587288409177 454.48801124519065 350.70051764090977 456.04622056983305 C 349.1423064409018 457.6044298944755 348.2669146956351 459.7178179139968 348.2669200000001 461.92146 L 348.2669200000001 496.99422000000004 C 348.26640652356224 498.43035807025075 348.6402459138526 499.8418279540944 349.3515700000001 501.08943000000005 C 346.8438200000001 501.52913000000007 344.3360100000001 502.00643 341.8282600000001 502.55800000000005 C 338.6812576268966 503.26167307518006 336.44583960576705 506.0575318330711 336.4519200000001 509.28224000000006 L 336.4519200000001 517.6151900000001 C 336.45190343141047 521.4189037152172 339.5354062848111 524.5024379086689 343.3391200000001 524.50246 L 421.372 524.50246 L 421.372 503.82625 C 414.1667040806915 502.0115335007609 406.8546325854376 500.6507462313427 399.4788899999998 499.75190999999995 Z" stroke-linecap="round" />
</g>
		<g transform="matrix(1 0 0 1 224.19 22.07)"  >
<path style="stroke: none; stroke-width: 1; stroke-dasharray: none; stroke-linecap: butt; stroke-dashoffset: 0; stroke-linejoin: miter; stroke-miterlimit: 4; fill: rgb(63,61,86); fill-rule: nonzero; opacity: 1;" vector-effect="non-scaling-stroke"  transform=" translate(-824.19, -472.07)" d="M 861.27235 502.558 C 858.7646 502.00642999999997 856.25685 501.52907 853.7491 501.08943 C 854.4604240861474 499.84182795409436 854.8342634764379 498.4303580702507 854.83375 496.99422 L 854.83375 461.92146 C 854.833755304365 459.7178179139968 853.9583635590983 457.6044298944755 852.4001523590904 456.04622056983305 C 850.8419411590824 454.4880112451906 848.7285520859953 453.61262204346764 846.52491 453.61263 L 843.1513199999999 453.61263 C 850.8848294640836 445.80767242046903 850.8462341983075 433.2171315163658 843.0650196139707 425.4597330451092 C 835.2838050296339 417.70233457385257 822.693204970366 417.70233457385257 814.9119903860292 425.4597330451092 C 807.1307758016924 433.2171315163658 807.0921805359162 445.807672420469 814.8256899999999 453.61263 L 811.4521 453.61263 C 809.2484579140047 453.61262204346764 807.1350688409176 454.4880112451906 805.5768576409096 456.04622056983305 C 804.0186464409016 457.6044298944755 803.1432546956349 459.7178179139968 803.1432599999999 461.92146 L 803.1432599999999 496.99422000000004 C 803.1450361576387 497.9339516243955 803.306856686112 498.86651630960307 803.62178 499.75191000000007 C 796.2460306917735 500.65074540550006 788.9339524913046 502.01153267964946 781.7286499999999 503.8262500000001 L 781.7286499999999 524.50246 L 859.7614899999999 524.50246 C 863.5652037151889 524.5024379086689 866.6487065685894 521.4189037152172 866.6486899999999 517.6151900000001 L 866.6486899999999 509.2822400000001 C 866.654770394233 506.05753183307115 864.4193523731035 503.26167307518006 861.27235 502.558 Z" stroke-linecap="round" />
</g>
		<g transform="matrix(1 0 0 1 338.28 -12.26)"  >
<polygon style="stroke: none; stroke-width: 1; stroke-dasharray: none; stroke-linecap: butt; stroke-dashoffset: 0; stroke-linejoin: miter; stroke-miterlimit: 4; fill: rgb(63,61,86); fill-rule: nonzero; opacity: 1;" vector-effect="non-scaling-stroke"  points="-100.43,1.85 100.43,-13.66 -59.81,13.66 -98.21,7.01 -100.43,1.85 " />
</g>
		<g transform="matrix(1 0 0 1 0.07 193.02)"  >
<path style="stroke: none; stroke-width: 1; stroke-dasharray: none; stroke-linecap: butt; stroke-dashoffset: 0; stroke-linejoin: miter; stroke-miterlimit: 4; fill: rgb(63,61,86); fill-rule: nonzero; opacity: 1;" vector-effect="non-scaling-stroke"  transform=" translate(-600.07, -643.02)" d="M 615.6533 610.89943 L 584.4936 610.89943 C 582.1627370290503 610.8994246956569 579.927338468459 611.8253533718279 578.2791685179974 613.4735214469246 C 576.6309985675358 615.1216895220214 575.7050673478232 617.3570870290457 575.70507 619.68795 L 575.70507 626.47923 C 575.7071070927606 630.1320895595504 577.9696847832186 633.4024102061563 581.38725 634.69223 C 580.0988892979221 636.2386978473689 579.3945734095432 638.1885238291915 579.39725 640.20134 L 579.39725 642.1492 C 579.3966145737171 644.9680554480134 580.7757182827623 647.6087384791524 583.08943 649.2189199999999 L 583.08943 675.1433099999999 L 617.05743 675.1433099999999 L 617.05743 649.21894 C 619.3711390735615 647.6087561508695 620.7502420049271 644.9680746088175 620.74961 642.14922 L 620.74961 640.20136 C 620.7522865904567 638.1885438291915 620.0479707020778 636.238717847369 618.75961 634.6922500000001 C 622.1771752167814 633.4024302061564 624.4397529072394 630.1321095595505 624.44179 626.4792500000001 L 624.44179 619.688 C 624.4418059130427 617.3571352964535 623.5158860383401 615.1217310061105 621.8677233018731 613.4735532667228 C 620.219560565406 611.8253755273349 617.9841647035947 610.8994353042913 615.6533 610.89943 Z" stroke-linecap="round" />
</g>
		<g transform="matrix(1 0 0 1 0.07 247.67)"  >
<path style="stroke: none; stroke-width: 1; stroke-dasharray: none; stroke-linecap: butt; stroke-dashoffset: 0; stroke-linejoin: miter; stroke-miterlimit: 4; fill: rgb(108,99,255); fill-rule: nonzero; opacity: 1;" vector-effect="non-scaling-stroke"  transform=" translate(-600.07, -697.67)" d="M 568.40771 671.47461 C 565.5192358593963 671.4779653916125 563.1784258756295 673.8185561862681 563.1748 676.70703 L 563.1748 718.6240300000001 C 563.1779794531667 721.5128477480904 565.5188925622773 723.8539800559688 568.40771 723.85743 L 631.73926 723.85743 C 634.627908891489 723.8537650974812 636.9685560730044 721.5126795271825 636.97168 718.6240300000001 L 636.97168 676.707 C 636.9681261467496 673.8186875642542 634.6275724357457 671.4781338532504 631.73926 671.47458 Z" stroke-linecap="round" />
</g>
		<g transform="matrix(1 0 0 1 0.85 149.82)"  >
<path style="stroke: none; stroke-width: 1; stroke-dasharray: none; stroke-linecap: butt; stroke-dashoffset: 0; stroke-linejoin: miter; stroke-miterlimit: 4; fill: rgb(108,99,255); fill-rule: nonzero; opacity: 1;" vector-effect="non-scaling-stroke"  transform=" translate(-600.85, -599.82)" d="M 672.61 593.91541 L 644.37962 617.54535 L 555.76731 617.54535 L 529.0802299999999 593.91541 L 555.61961 593.91541 L 556.77896 588.1334099999999 C 557.4796876643131 584.6267113706257 560.5577753185896 582.1018294128604 564.1338 582.1004099999999 L 638.2284099999999 582.1004099999999 C 641.8044337171588 582.1018263663274 644.8825201877876 584.6267107861311 645.5832399999999 588.1334099999999 L 646.74259 593.91541 Z" stroke-linecap="round" />
</g>
		<g transform="matrix(1 0 0 1 0.07 247.67)"  >
<circle style="stroke: none; stroke-width: 1; stroke-dasharray: none; stroke-linecap: butt; stroke-dashoffset: 0; stroke-linejoin: miter; stroke-miterlimit: 4; fill: rgb(63,61,86); fill-rule: nonzero; opacity: 1;" vector-effect="non-scaling-stroke"  cx="0" cy="0" r="20.6762" />
</g>
		<g transform="matrix(1 0 0 1 0.07 247.67)"  >
<circle style="stroke: none; stroke-width: 1; stroke-dasharray: none; stroke-linecap: butt; stroke-dashoffset: 0; stroke-linejoin: miter; stroke-miterlimit: 4; fill: rgb(230,230,230); fill-rule: nonzero; opacity: 1;" vector-effect="non-scaling-stroke"  cx="0" cy="0" r="11.81497" />
</g>
		<g transform="matrix(1 0 0 1 1.28 248.88)"  >
<path style="stroke: none; stroke-width: 1; stroke-dasharray: none; stroke-linecap: butt; stroke-dashoffset: 0; stroke-linejoin: miter; stroke-miterlimit: 4; fill: rgb(255,255,255); fill-rule: nonzero; opacity: 1;" vector-effect="non-scaling-stroke"  transform=" translate(-601.28, -698.88)" d="M 607.21506 688.26905 C 610.7992461032946 692.9668195129847 610.3558978420098 699.5914176109994 606.1776864652315 703.7696921485494 C 601.9994750884532 707.9479666860996 595.3748836931078 708.3914150886451 590.67706 704.8072999999999 C 593.4585268323432 708.4764471016995 598.1195188719175 710.1935225587798 602.6165690289765 709.2057280061367 C 607.1136191860355 708.2179334534936 610.6259419177754 704.7055576270213 611.6136684902573 700.2084925383942 C 612.601395062739 695.7114274497671 610.8842491475648 691.0504613670452 607.21506 688.26905 Z" stroke-linecap="round" />
</g>
		<g transform="matrix(1 0 0 1 1.92 63.06)"  >
<rect style="stroke: none; stroke-width: 1; stroke-dasharray: none; stroke-linecap: butt; stroke-dashoffset: 0; stroke-linejoin: miter; stroke-miterlimit: 4; fill: rgb(230,230,230); fill-rule: nonzero; opacity: 1;" vector-effect="non-scaling-stroke"  x="-265.098185" y="-1.69106" rx="0" ry="0" width="530.19637" height="3.38212" />
</g>
		<g transform="matrix(1 0 0 1 339.75 -11.26)"  >
<polygon style="stroke: none; stroke-width: 1; stroke-dasharray: none; stroke-linecap: butt; stroke-dashoffset: 0; stroke-linejoin: miter; stroke-miterlimit: 4; fill: rgb(108,99,255); fill-rule: nonzero; opacity: 1;" vector-effect="non-scaling-stroke"  points="-59.81,10.23 -98.21,3.58 -98.59,2.7 -100.43,2.85 -98.21,8.01 -59.81,14.66 100.43,-14.66 52.94,-8.99 -59.81,10.23 " />
</g>
		<g transform="matrix(1 0 0 1 -116.6 -12.26)"  >
<polygon style="stroke: none; stroke-width: 1; stroke-dasharray: none; stroke-linecap: butt; stroke-dashoffset: 0; stroke-linejoin: miter; stroke-miterlimit: 4; fill: rgb(63,61,86); fill-rule: nonzero; opacity: 1;" vector-effect="non-scaling-stroke"  points="-100.43,1.85 100.43,-13.66 -59.81,13.66 -98.21,7.01 -100.43,1.85 " />
</g>
		<g transform="matrix(1 0 0 1 -114.38 -11.26)"  >
<polygon style="stroke: none; stroke-width: 1; stroke-dasharray: none; stroke-linecap: butt; stroke-dashoffset: 0; stroke-linejoin: miter; stroke-miterlimit: 4; fill: rgb(108,99,255); fill-rule: nonzero; opacity: 1;" vector-effect="non-scaling-stroke"  points="-59.81,10.23 -98.21,3.58 -98.59,2.7 -100.43,2.85 -98.21,8.01 -59.81,14.66 100.43,-14.66 52.94,-8.99 -59.81,10.23 " />
</g>
		<g transform="matrix(1 0 0 1 1.18 144.28)"  >
<rect style="stroke: none; stroke-width: 1; stroke-dasharray: none; stroke-linecap: butt; stroke-dashoffset: 0; stroke-linejoin: miter; stroke-miterlimit: 4; fill: rgb(230,230,230); fill-rule: nonzero; opacity: 1;" vector-effect="non-scaling-stroke"  x="-29.537425" y="-5.907485" rx="0" ry="0" width="59.07485" height="11.81497" />
</g>
		<g transform="matrix(1 0 0 1 -278.32 -204.56)"  >
<path style="stroke: none; stroke-width: 1; stroke-dasharray: none; stroke-linecap: butt; stroke-dashoffset: 0; stroke-linejoin: miter; stroke-miterlimit: 4; fill: rgb(230,230,230); fill-rule: nonzero; opacity: 1;" vector-effect="non-scaling-stroke"  transform=" translate(-321.68, -245.44)" d="M 411.21655 173.93539 L 232.14569 173.93539 C 218.91661514867968 173.950319044949 208.19604664626226 184.67086517985666 208.18109 197.89994000000002 L 208.18109 292.97085000000004 C 208.19605765488632 306.19991863349065 218.91662132907638 316.92045546668106 232.14569 316.93539000000004 L 411.21655 316.93539000000004 C 424.44559523947834 316.9204224089729 435.16612240897285 306.1998952394784 435.18109 292.97085000000004 L 435.18109 197.89994 C 435.16613341756374 184.67088857388467 424.445601419873 173.95035210269603 411.21655 173.93538999999998 Z" stroke-linecap="round" />
</g>
		<g transform="matrix(1 0 0 1 -278.32 -204.56)"  >
<path style="stroke: none; stroke-width: 1; stroke-dasharray: none; stroke-linecap: butt; stroke-dashoffset: 0; stroke-linejoin: miter; stroke-miterlimit: 4; fill: rgb(255,255,255); fill-rule: nonzero; opacity: 1;" vector-effect="non-scaling-stroke"  transform=" translate(-321.68, -245.44)" d="M 232.14546 193.43538 C 229.68094044356982 193.43798152032105 227.68370152032105 195.43522044356982 227.68110000000001 197.89974 L 227.68110000000001 292.971 C 227.68370152032105 295.4355195564302 229.68094044356982 297.43275847967897 232.14546 297.43536 L 411.21675 297.43536 C 413.6812656511873 297.43275296919313 415.6784984896225 295.4355156570208 415.6811 292.971 L 415.6811 197.89974 C 415.6784984896225 195.43522434297924 413.6812656511873 193.4379870308069 411.21675 193.43538 Z" stroke-linecap="round" />
</g>
		<g transform="matrix(1 0 0 1 -285.17 -204.56)"  >
<path style="stroke: none; stroke-width: 1; stroke-dasharray: none; stroke-linecap: butt; stroke-dashoffset: 0; stroke-linejoin: miter; stroke-miterlimit: 4; fill: rgb(108,99,255); fill-rule: nonzero; opacity: 1;" vector-effect="non-scaling-stroke"  transform=" translate(-314.83, -245.44)" d="M 318.05769 287.4132 Q 317.96605999999997 287.4132 317.87361 287.40808000000004 C 316.3662808225416 287.32271909335975 315.11930591798085 286.2042833171792 314.87111 284.71508000000006 L 304.50727 222.53172000000006 L 295.35649 259.1348500000001 C 294.99712232574194 260.5723389536505 293.7055385909263 261.580780098133 292.22381 261.58078000000006 L 279.30761 261.58078000000006 C 277.5242549285589 261.58078000000006 276.07856000000004 260.1350850714412 276.07856000000004 258.3517300000001 C 276.07856000000004 256.5683749285589 277.5242549285589 255.12268000000006 279.30761 255.12268000000006 L 289.7027 255.12268000000006 L 302.00734 205.90381000000005 C 302.3782848211051 204.41945343299662 303.7400473779772 203.3991971945041 305.268833828609 203.4602419868756 C 306.79762027924073 203.5212867792471 308.0736988715573 204.64687261769433 308.32511 206.15608000000006 L 318.88653999999997 269.52432000000005 L 327.86762999999996 238.09032000000005 C 328.25654914895557 236.72904266870924 329.48685756088025 235.77986930520711 330.90226865004047 235.74911990207787 C 332.31767973920074 235.71837049894862 333.5880489655863 236.61321735237496 334.03571999999997 237.95632000000006 L 339.75789999999995 255.12267000000006 L 350.34671999999995 255.12267000000006 C 352.1300749570074 255.12267016183364 353.5757697069743 256.5683650429925 353.5757697069743 258.35172000000006 C 353.5757697069743 260.13507495700753 352.1300749570074 261.5807698381665 350.34671999999995 261.58077000000003 L 337.43051 261.58077000000003 C 336.0406364916833 261.5807636061246 334.80670530679294 260.6913768794969 334.36721 259.37282000000005 L 331.20971 249.90059000000005 L 321.161 285.07123 C 320.76502982699355 286.45689520286544 319.4988214612671 287.4124626473941 318.05769 287.4132 Z" stroke-linecap="round" />
</g>
		<g transform="matrix(1 0 0 1 -242.22 -191.6)"  >
<circle style="stroke: none; stroke-width: 1; stroke-dasharray: none; stroke-linecap: butt; stroke-dashoffset: 0; stroke-linejoin: miter; stroke-miterlimit: 4; fill: rgb(63,61,86); fill-rule: nonzero; opacity: 1;" vector-effect="non-scaling-stroke"  cx="0" cy="0" r="9.50011" />
</g>
		<g transform="matrix(1 0 0 1 -0.32 -204.56)"  >
<path style="stroke: none; stroke-width: 1; stroke-dasharray: none; stroke-linecap: butt; stroke-dashoffset: 0; stroke-linejoin: miter; stroke-miterlimit: 4; fill: rgb(230,230,230); fill-rule: nonzero; opacity: 1;" vector-effect="non-scaling-stroke"  transform=" translate(-599.68, -245.44)" d="M 689.21655 173.93539 L 510.14563 173.93539 C 496.91657858012695 173.95035210269606 486.1960465824362 184.67088857388472 486.18109 197.89994000000004 L 486.18109 292.97085000000004 C 486.1960575910271 306.1998952394784 496.91658476052163 316.9204224089729 510.14563 316.93539000000004 L 689.21655 316.93539000000004 C 702.4455998022711 316.9204334069339 713.1661334069339 306.1998998022712 713.18109 292.97085000000004 L 713.18109 197.89994 C 713.166144415552 184.67088401108737 702.445605982675 173.95034110470974 689.2165500000001 173.93538999999998 Z" stroke-linecap="round" />
</g>
		<g transform="matrix(1 0 0 1 -0.32 -204.56)"  >
<path style="stroke: none; stroke-width: 1; stroke-dasharray: none; stroke-linecap: butt; stroke-dashoffset: 0; stroke-linejoin: miter; stroke-miterlimit: 4; fill: rgb(255,255,255); fill-rule: nonzero; opacity: 1;" vector-effect="non-scaling-stroke"  transform=" translate(-599.68, -245.44)" d="M 510.14546 193.43538 C 507.6809404435698 193.43798152032105 505.68370152032105 195.43522044356982 505.6811 197.89974 L 505.6811 292.971 C 505.68370152032105 295.4355195564302 507.6809404435698 297.43275847967897 510.14546 297.43536 L 689.21675 297.43536 C 691.6812656511873 297.4327529691931 693.6784984896225 295.43551565702074 693.6811 292.971 L 693.6811 197.89974 C 693.6784984896225 195.43522434297927 691.6812656511873 193.43798703080694 689.21675 193.43538 Z" stroke-linecap="round" />
</g>
		<g transform="matrix(1 0 0 1 -0.32 -223.07)"  >
<circle style="stroke: none; stroke-width: 1; stroke-dasharray: none; stroke-linecap: butt; stroke-dashoffset: 0; stroke-linejoin: miter; stroke-miterlimit: 4; fill: rgb(108,99,255); fill-rule: nonzero; opacity: 1;" vector-effect="non-scaling-stroke"  cx="0" cy="0" r="23.62069" />
</g>
		<g transform="matrix(1 0 0 1 -0.32 -178.98)"  >
<path style="stroke: none; stroke-width: 1; stroke-dasharray: none; stroke-linecap: butt; stroke-dashoffset: 0; stroke-linejoin: miter; stroke-miterlimit: 4; fill: rgb(108,99,255); fill-rule: nonzero; opacity: 1;" vector-effect="non-scaling-stroke"  transform=" translate(-443.68, -97.09)" d="M 443.68107 80.55459 L 443.68113 80.55459 C 461.07490741381594 80.55459 475.17535 94.65503258618402 475.17535 112.04880999999999 L 475.17535 113.62355000000001 L 412.18685 113.62355000000001 L 412.18685 112.04881 C 412.18685 94.65503258618403 426.28729258618404 80.55459 443.68107 80.55459 Z" stroke-linecap="round" />
</g>
		<g transform="matrix(1 0 0 1 -48.35 -204.17)"  >
<circle style="stroke: none; stroke-width: 1; stroke-dasharray: none; stroke-linecap: butt; stroke-dashoffset: 0; stroke-linejoin: miter; stroke-miterlimit: 4; fill: rgb(63,61,86); fill-rule: nonzero; opacity: 1;" vector-effect="non-scaling-stroke"  cx="0" cy="0" r="16.53448" />
</g>
		<g transform="matrix(1 0 0 1 -50.49 -174.02)"  >
<path style="stroke: none; stroke-width: 1; stroke-dasharray: none; stroke-linecap: butt; stroke-dashoffset: 0; stroke-linejoin: miter; stroke-miterlimit: 4; fill: rgb(63,61,86); fill-rule: nonzero; opacity: 1;" vector-effect="non-scaling-stroke"  transform=" translate(-549.51, -275.98)" d="M 567.8456 269.96044 C 561.354404835904 264.2043925472076 552.0903265284638 262.79168298171913 544.1785440746721 266.35137332514165 C 536.2667616208805 269.91106366856417 531.1791267209486 277.7809344634248 531.1811 286.45663 L 531.1811 287.55894 L 563.46271 287.55894 L 563.46271 285.98418 C 563.4556694681371 280.3459188481374 564.969830885718 274.81018127011265 567.8456 269.96044 Z" stroke-linecap="round" />
</g>
		<g transform="matrix(1 0 0 1 47.71 -204.17)"  >
<circle style="stroke: none; stroke-width: 1; stroke-dasharray: none; stroke-linecap: butt; stroke-dashoffset: 0; stroke-linejoin: miter; stroke-miterlimit: 4; fill: rgb(63,61,86); fill-rule: nonzero; opacity: 1;" vector-effect="non-scaling-stroke"  cx="0" cy="0" r="16.53448" />
</g>
		<g transform="matrix(1 0 0 1 49.85 -174.02)"  >
<path style="stroke: none; stroke-width: 1; stroke-dasharray: none; stroke-linecap: butt; stroke-dashoffset: 0; stroke-linejoin: miter; stroke-miterlimit: 4; fill: rgb(63,61,86); fill-rule: nonzero; opacity: 1;" vector-effect="non-scaling-stroke"  transform=" translate(-649.85, -275.98)" d="M 631.5166 269.96044 C 638.007795164096 264.2043925472076 647.2718734715361 262.79168298171913 655.1836559253278 266.35137332514165 C 663.0954383791195 269.91106366856417 668.1830732790514 277.7809344634248 668.1811 286.45663 L 668.1811 287.55894 L 635.89949 287.55894 L 635.89949 285.98418 C 635.9065354778114 280.34591818706167 634.392373708143 274.810179321814 631.5166 269.96044 Z" stroke-linecap="round" />
</g>
		<g transform="matrix(1 0 0 1 277.68 -204.56)"  >
<path style="stroke: none; stroke-width: 1; stroke-dasharray: none; stroke-linecap: butt; stroke-dashoffset: 0; stroke-linejoin: miter; stroke-miterlimit: 4; fill: rgb(230,230,230); fill-rule: nonzero; opacity: 1;" vector-effect="non-scaling-stroke"  transform=" translate(-877.68, -245.44)" d="M 967.21655 173.93539 L 788.14569 173.93539 C 774.9166128672798 173.95031354593107 764.1960411472489 184.67086289844536 764.1810899999999 197.89994000000002 L 764.1810899999999 292.97085000000004 C 764.1960521558867 306.1999209148997 774.916619047681 316.92046096568635 788.14569 316.93539000000004 L 967.21655 316.93539000000004 C 980.4455998022711 316.9204334069339 991.1661334069339 306.1998998022712 991.18109 292.97085000000004 L 991.18109 197.89994 C 991.166144415552 184.67088401108737 980.445605982675 173.95034110470974 967.2165500000001 173.93538999999998 Z" stroke-linecap="round" />
</g>
		<g transform="matrix(1 0 0 1 277.68 -204.56)"  >
<path style="stroke: none; stroke-width: 1; stroke-dasharray: none; stroke-linecap: butt; stroke-dashoffset: 0; stroke-linejoin: miter; stroke-miterlimit: 4; fill: rgb(255,255,255); fill-rule: nonzero; opacity: 1;" vector-effect="non-scaling-stroke"  transform=" translate(-877.68, -245.44)" d="M 788.14546 193.43538 C 785.6809404435697 193.43798152032102 783.6837015203209 195.4352204435698 783.6810999999999 197.89974 L 783.6810999999999 292.971 C 783.6837015203209 295.4355195564302 785.6809404435697 297.432758479679 788.14546 297.43536 L 967.21675 297.43536 C 969.6812656511873 297.4327529691931 971.6784984896225 295.43551565702074 971.6811 292.971 L 971.6811 197.89974 C 971.6784984896225 195.43522434297927 969.6812656511873 193.43798703080694 967.21675 193.43538 Z" stroke-linecap="round" />
</g>
		<g transform="matrix(1 0 0 1 274.68 -175.25)"  >
<path style="stroke: none; stroke-width: 1; stroke-dasharray: none; stroke-linecap: butt; stroke-dashoffset: 0; stroke-linejoin: miter; stroke-miterlimit: 4; fill: rgb(108,99,255); fill-rule: nonzero; opacity: 1;" vector-effect="non-scaling-stroke"  transform=" translate(-874.68, -274.75)" d="M 874.683 289.39891 C 873.9056687527702 289.3989338706782 873.1601679719982 289.09015149195994 872.6105108379053 288.54049623324744 C 872.0608537038123 287.9908409745349 871.7520687815103 287.2453412473067 871.75209 286.46801 L 871.75209 263.02079 C 871.7550760467561 261.4042096735249 873.0664119157072 260.0952937856464 874.6829949999999 260.0952937856464 C 876.2995780842926 260.0952937856464 877.6109139532438 261.4042096735249 877.6139 263.02079 L 877.6139 286.468 C 877.6139238706781 287.2453312472298 877.3051414919598 287.99083202800165 876.7554862332473 288.5404891620946 C 876.2058309745348 289.09014629618764 875.4603312473067 289.3989312184897 874.683 289.39891 Z" stroke-linecap="round" />
</g>
		<g transform="matrix(1 0 0 1 274.68 -175.26)"  >
<path style="stroke: none; stroke-width: 1; stroke-dasharray: none; stroke-linecap: butt; stroke-dashoffset: 0; stroke-linejoin: miter; stroke-miterlimit: 4; fill: rgb(108,99,255); fill-rule: nonzero; opacity: 1;" vector-effect="non-scaling-stroke"  transform=" translate(-874.68, -274.74)" d="M 884.94113 277.6753 L 864.4247300000001 277.6753 C 862.806038626721 277.6753 861.4938300000001 276.3630913732791 861.4938300000001 274.7444 C 861.4938300000001 273.1257086267209 862.806038626721 271.8135 864.4247300000001 271.8135 L 884.94113 271.8135 C 886.5598213732791 271.8135 887.87203 273.1257086267209 887.87203 274.7444 C 887.8720300000001 276.3630913732791 886.5598213732791 277.6753 884.94113 277.6753 Z" stroke-linecap="round" />
</g>
		<g transform="matrix(1 0 0 1 306.92 -238.27)"  >
<path style="stroke: none; stroke-width: 1; stroke-dasharray: none; stroke-linecap: butt; stroke-dashoffset: 0; stroke-linejoin: miter; stroke-miterlimit: 4; fill: rgb(108,99,255); fill-rule: nonzero; opacity: 1;" vector-effect="non-scaling-stroke"  transform=" translate(-906.92, -211.73)" d="M 914.25016 221.98816 C 913.4728336312066 221.98816795660147 912.7273420968758 221.67938046741088 912.1776884125945 221.1297286584983 C 911.6280347283133 220.58007684958574 911.3192446955703 219.834586368816 911.31925 219.05725999999999 L 911.31925 207.33365 L 899.59564 207.33365 C 898.5485302381447 207.33365006659014 897.5809608888751 206.77502369702466 897.0574059887246 205.86820005380568 C 896.533851088574 204.96137641058672 896.533851088574 203.8441235894133 897.0574059887246 202.93729994619434 C 897.5809608888751 202.03047630297536 898.5485302381447 201.47184993340989 899.59564 201.47185000000002 L 914.25016 201.47185000000002 C 915.0274846361897 201.47184469560483 915.7729736014664 201.78063335564187 916.3226251229123 202.33028487708776 C 916.8722766443582 202.87993639853366 917.1810653043952 203.62542536381034 917.18106 204.40275000000003 L 917.18106 219.05726 C 917.1810653043951 219.8345846361897 916.8722766443582 220.58007360146635 916.3226251229123 221.12972512291225 C 915.7729736014664 221.67937664435814 915.0274846361897 221.98816530439518 914.25016 221.98816 Z" stroke-linecap="round" />
</g>
		<g transform="matrix(1 0 0 1 305.39 -236.74)"  >
<path style="stroke: none; stroke-width: 1; stroke-dasharray: none; stroke-linecap: butt; stroke-dashoffset: 0; stroke-linejoin: miter; stroke-miterlimit: 4; fill: rgb(108,99,255); fill-rule: nonzero; opacity: 1;" vector-effect="non-scaling-stroke"  transform=" translate(-905.39, -213.26)" d="M 896.53272 225.051 C 895.347290176383 225.05095581841687 894.2786060797247 224.33684717899206 893.8249729881236 223.24164816197413 C 893.3713398965224 222.1464491449562 893.6220885339659 220.88582946869707 894.4603000000001 220.04758999999999 L 912.1777400000001 202.33024999999998 C 913.3227863252368 201.1882350394851 915.1764440924792 201.18948250245657 916.3199522891214 202.33303760003164 C 917.4634604857637 203.47659269760672 917.4646319226104 205.3302505144536 916.32257 206.47525 L 898.60514 224.1926 C 898.0560454363621 224.74305268511594 897.310217296313 225.0519760092578 896.53272 225.051 Z" stroke-linecap="round" />
</g>
		<g transform="matrix(1 0 0 1 274.68 -214.82)"  >
<path style="stroke: none; stroke-width: 1; stroke-dasharray: none; stroke-linecap: butt; stroke-dashoffset: 0; stroke-linejoin: miter; stroke-miterlimit: 4; fill: rgb(63,61,86); fill-rule: nonzero; opacity: 1;" vector-effect="non-scaling-stroke"  transform=" translate(-874.68, -235.18)" d="M 874.683 263.02079 C 859.3054209081538 263.02079 846.83943 250.55479909184615 846.83943 235.17721999999998 C 846.83943 219.79964090815378 859.3054209081538 207.33364999999998 874.683 207.33364999999998 C 890.0605790918462 207.33364999999998 902.52657 219.79964090815378 902.52657 235.17721999999998 C 902.5091721206287 250.54758688635602 890.053366886356 263.0033921206287 874.683 263.02079 Z M 874.683 213.19545999999997 C 865.7922021408768 213.1954559553776 857.7768474316146 218.5511407917066 854.3744845220489 226.76516618754135 C 850.9721216124833 234.9791915833761 852.8527879141737 244.43394517313519 859.1395313705193 250.72068862948072 C 865.4262748268648 257.0074320858262 874.8810284166238 258.8880983875167 883.0950538124587 255.48573547795107 C 891.3090792082934 252.08337256838544 896.6647640446223 244.0680178591232 896.66476 235.17721999999998 C 896.6509938643994 223.0427358717929 886.8174841282071 213.20922613560055 874.683 213.19546 Z" stroke-linecap="round" />
</g>
		<g transform="matrix(1 0 0 1 0 274.94)"  >
<rect style="stroke: none; stroke-width: 1; stroke-dasharray: none; stroke-linecap: butt; stroke-dashoffset: 0; stroke-linejoin: miter; stroke-miterlimit: 4; fill: rgb(63,61,86); fill-rule: nonzero; opacity: 1;" vector-effect="non-scaling-stroke"  x="-444" y="-1.12036" rx="0" ry="0" width="888" height="2.24072" />
</g>
</g>
</g>
</svg>